<?xml version="1.0" encoding="UTF-8"?>
<svg width="700pt" height="700pt" version="1.1" viewBox="0 0 700 700" xmlns="http://www.w3.org/2000/svg">
 <g>
  <path d="m577.5 538.12h-455c-26.539 0-48.125-21.586-48.125-48.125v-437.5c0-26.539 21.586-48.125 48.125-48.125h127.15c23.797 0 44.273 17.754 47.637 41.309l8.9219 62.41c1.5195 10.715 10.828 18.781 21.645 18.781h249.65c26.539 0 48.125 21.586 48.125 48.125v315c0 26.539-21.586 48.125-48.125 48.125zm-455-507.5c-12.066 0-21.875 9.8086-21.875 21.875v437.5c0 12.066 9.8086 21.875 21.875 21.875h455c12.066 0 21.875-9.8086 21.875-21.875v-315c0-12.066-9.8086-21.875-21.875-21.875h-249.65c-23.797 0-44.273-17.754-47.637-41.309l-8.9219-62.41c-1.5195-10.715-10.828-18.781-21.645-18.781z"/>
  <path d="m577.5 153.12c-7.2461 0-13.125-5.8789-13.125-13.125v-35c0-12.066-9.8086-21.875-21.875-21.875h-254.97c-7.2461 0-13.125-5.8789-13.125-13.125s5.8789-13.125 13.125-13.125h254.97c26.531 0 48.125 21.586 48.125 48.125v35c0 7.2461-5.8789 13.125-13.125 13.125z"/>
  <path d="m385 415.62h-140c-16.883 0-30.625-13.742-30.625-30.625v-105c0-16.883 13.742-30.625 30.625-30.625h140c16.883 0 30.625 13.742 30.625 30.625v105c0 16.883-13.742 30.625-30.625 30.625zm-140-140c-2.4102 0-4.375 1.9648-4.375 4.375v105c0 2.4102 1.9648 4.375 4.375 4.375h140c2.4102 0 4.375-1.9648 4.375-4.375v-105c0-2.4102-1.9648-4.375-4.375-4.375z"/>
  <path d="m455.02 404.84c-4.6758 0-9.3477-1.0938-13.707-3.2656h-0.007813l-44.672-22.336c-4.4414-2.2227-7.2539-6.7656-7.2539-11.742v-70c0-4.9727 2.8086-9.5195 7.2539-11.742l44.672-22.336c9.5703-4.7695 20.715-4.2734 29.805 1.3477 9.0898 5.6211 14.52 15.363 14.52 26.047v83.363c0 10.684-5.4258 20.422-14.52 26.047-4.9453 3.0586-10.512 4.6133-16.09 4.6133zm-1.9844-26.746c1.8984 0.95703 3.4844 0.27344 4.2656-0.1875 0.77734-0.47656 2.0781-1.6055 2.0781-3.7266v-83.363c0-2.1211-1.2969-3.2461-2.0781-3.7266-0.77734-0.46094-2.3594-1.1445-4.2656-0.1875l-37.41 18.711v53.766l37.41 18.711z"/>
 </g>
</svg>
